PathFileType	4	(X/Y/Z)	./resultDataOpenSim/trcMotMarkerGrf/sub09/qtm-02-07.trc
DataRate	CameraRate	NumFrames	NumMarkers	Units	OrigDataRate	OrigDataStartFrame	OrigNumFrames
250.000000	250.000000	9	24	m	250.000000	182	485
Frame#	Time	L.Toe.Tip			R.Toe.Tip			L.Ankle.Lat			R.Ankle.Lat			L.Ankle.Med			R.Ankle.Med			L.Heel			R.Heel			L.Knee.Lat			R.Knee.Lat			L.Knee.Med			R.Knee.Med			L.Thigh.Upper			R.Thigh.Upper			L.ASIS			R.ASIS			V.Sacral			L.Acromium			R.Acromium			C7			L.Elbow			R.Elbow			L.Wrist.Lat			R.Wrist.Lat
		X1	Y1	Z1	X2	Y2	Z2	X3	Y3	Z3	X4	Y4	Z4	X5	Y5	Z5	X6	Y6	Z6	X7	Y7	Z7	X8	Y8	Z8	X9	Y9	Z9	X10	Y10	Z10	X11	Y11	Z11	X12	Y12	Z12	X13	Y13	Z13	X14	Y14	Z14	X15	Y15	Z15	X16	Y16	Z16	X17	Y17	Z17	X18	Y18	Z18	X19	Y19	Z19	X20	Y20	Z20	X21	Y21	Z21	X22	Y22	Z22	X23	Y23	Z23	X24	Y24	Z24

182	0.724	0.17119793	0.015899205	0.0049883792	-0.62174155	0.061057679	0.089546426	0.026305203	0.04646812	-0.047065866	-0.66868129	0.20518322	0.13437315	0.038897438	0.069012704	0.049465383	-0.61788089	0.20503974	0.050358476	-0.049100019	0.012571071	-0.0067988282	-0.7099533	0.2454553	0.072312144	0.048411828	0.45689815	-0.10514872	-0.27705608	0.42765022	0.20994919	0.042925329	0.46178554	0.021111441	-0.26506158	0.4000782	0.083182613	-0.15636449	0.82830704	-0.15327371	-0.23305695	0.81899564	0.21690802	-0.09689177	0.9157166	-0.081135093	-0.11766688	0.90346083	0.16032137	-0.27372622	0.9584779	0.021341745	-0.12775367	1.3582905	-0.14508625	-0.15815152	1.3780418	0.18476427	-0.21103662	1.4147004	0.015411531	-0.28676038	1.0326899	-0.1915097	-0.27493993	1.0219715	0.2683571	-0.22276982	0.78765157	-0.2586598	-0.051269282	0.85321568	0.26018037
183	0.728	0.17132184	0.015727005	0.005109758	-0.61633712	0.06309117	0.090843841	0.026592447	0.046349285	-0.047025495	-0.65802866	0.2095748	0.13520539	0.039165445	0.068851329	0.04959765	-0.60685169	0.20790541	0.051323202	-0.049031237	0.012617091	-0.0068174731	-0.69796653	0.25123278	0.073123322	0.052886343	0.4561952	-0.10540278	-0.26496537	0.42687728	0.2105291	0.047535016	0.46098936	0.02080653	-0.25220811	0.39896378	0.083821157	-0.14952642	0.82868438	-0.1538633	-0.22508315	0.8184375	0.21607934	-0.090205993	0.91615278	-0.081717101	-0.11087726	0.90360775	0.15972358	-0.26744022	0.95910974	0.021102781	-0.12045276	1.3586938	-0.14523011	-0.15126218	1.378359	0.18457906	-0.203892	1.4152408	0.015026389	-0.27866048	1.0325307	-0.19174989	-0.26914788	1.0229596	0.26825225	-0.21348703	0.78766009	-0.25855352	-0.047473662	0.85169178	0.26091699
184	0.732	0.17140705	0.015595854	0.0051784973	-0.61017049	0.065241735	0.09232617	0.026836604	0.04624775	-0.047062945	-0.64713874	0.21367222	0.13596475	0.039405621	0.06872785	0.049653626	-0.5956464	0.21072073	0.052235635	-0.04898377	0.012654261	-0.006869453	-0.68573819	0.25694072	0.074065181	0.057098121	0.45564471	-0.10555973	-0.2527135	0.42625136	0.21099148	0.05166556	0.46027531	0.020506617	-0.23949299	0.39818681	0.084258464	-0.14261908	0.82914941	-0.15441013	-0.21754393	0.81805595	0.21548789	-0.083573504	0.9166544	-0.082246696	-0.10418303	0.90385606	0.15917026	-0.26158927	0.95982183	0.020798243	-0.11321362	1.3591643	-0.14537719	-0.14445067	1.3787376	0.18443509	-0.19669091	1.4158383	0.014524497	-0.2706141	1.0324298	-0.19210806	-0.26340665	1.0239737	0.2681936	-0.20410543	0.78772355	-0.25839579	-0.043758452	0.85020266	0.26169401
185	0.736	0.17145532	0.015495541	0.0052268794	-0.60304423	0.067573555	0.094019873	0.027056162	0.04615361	-0.04711698	-0.63600753	0.21753085	0.13666433	0.039611268	0.068627474	0.049664611	-0.58435796	0.21353705	0.053054293	-0.04896203	0.012681191	-0.0069274941	-0.67342747	0.26261717	0.075244916	0.060924686	0.4552129	-0.10554996	-0.24031261	0.42578922	0.21133777	0.055245675	0.45964606	0.020171322	-0.22691824	0.39773589	0.084489757	-0.13572006	0.82972389	-0.1549054	-0.21029511	0.81787555	0.21501515	-0.077010768	0.9172306	-0.08273626	-0.097598272	0.9042113	0.15865117	-0.25578278	0.96064547	0.020403345	-0.10604178	1.3597112	-0.14552912	-0.13771953	1.3791896	0.18431863	-0.18957854	1.4165551	0.014129747	-0.26264055	1.0324	-0.19263154	-0.2577607	1.0250279	0.26822473	-0.19462065	0.78785035	-0.25819431	-0.040123209	0.8487568	0.26250689
186	0.74	0.17147337	0.015420279	0.0052766475	-0.59481524	0.070147288	0.095917682	0.027260494	0.046079767	-0.047147236	-0.62463208	0.22122789	0.13728792	0.039777107	0.068545431	0.04965467	-0.57296106	0.21645931	0.053721689	-0.048964482	0.012699078	-0.0069763159	-0.66120977	0.26819062	0.076647599	0.064304029	0.45492838	-0.10544786	-0.22778078	0.42550356	0.21156892	0.058390993	0.45913368	0.019857801	-0.21440524	0.39759429	0.084539313	-0.12893207	0.83042938	-0.15533975	-0.20311785	0.81791485	0.21447979	-0.070493725	0.91789836	-0.083172778	-0.091125986	0.90468611	0.1581761	-0.24954782	0.96161178	0.01992839	-0.09893415	1.3603452	-0.14567897	-0.13108691	1.3797349	0.18421303	-0.18260474	1.4174235	0.01390804	-0.25473506	1.032439	-0.19324925	-0.25206304	1.0261214	0.26824582	-0.18503267	0.78805443	-0.25795636	-0.036565062	0.8473754	0.26336348
187	0.744	0.1714672	0.015366203	0.0053280883	-0.58545705	0.07298923	0.097953018	0.02744088	0.046046746	-0.04715859	-0.61301063	0.22484218	0.13779575	0.039897793	0.068488615	0.049632848	-0.56139807	0.21959374	0.054194599	-0.048988589	0.012710015	-0.007016213	-0.64914186	0.27342504	0.078021412	0.067393849	0.45486147	-0.10552195	-0.21514831	0.42540407	0.2116833	0.061270161	0.45876337	0.019628026	-0.20183934	0.39774426	0.084424655	-0.12233607	0.83128676	-0.15571201	-0.19575114	0.81819724	0.21367008	-0.063944917	0.91868274	-0.083509628	-0.084756243	0.90529272	0.15776034	-0.24272703	0.96272021	0.019543213	-0.09187714	1.3610719	-0.14581215	-0.12456162	1.3803936	0.1841128	-0.17571642	1.4184205	0.013751382	-0.24683264	1.0325385	-0.19382298	-0.24615608	1.0272568	0.26816437	-0.17534604	0.78835171	-0.2576762	-0.033086878	0.84608221	0.26427447
188	0.748	0.1714399	0.015329387	0.0053673244	-0.5750278	0.076063131	0.10004547	0.027571554	0.046045173	-0.047176217	-0.60114642	0.22844581	0.13816434	0.039973715	0.068463001	0.049596997	-0.54965914	0.22296532	0.05446341	-0.049031651	0.012716679	-0.0070542014	-0.63713705	0.27801891	0.07899279	0.070516828	0.4549871	-0.10596185	-0.20245368	0.42550273	0.21168135	0.063976064	0.45851568	0.019473968	-0.18915096	0.39816849	0.084147259	-0.11595225	0.83230829	-0.15603842	-0.18800864	0.81872948	0.2124483	-0.057302606	0.91959663	-0.08370969	-0.078477015	0.90603323	0.15740658	-0.23557449	0.96393008	0.01947846	-0.084851909	1.3618919	-0.14591382	-0.11813328	1.3811762	0.18402125	-0.16885955	1.4195023	0.01356191	-0.23887022	1.0326981	-0.19426988	-0.24003127	1.0284496	0.2679778	-0.16556882	0.78875525	-0.25734138	-0.029708823	0.8448918	0.26523236
189	0.752	0.17139391	0.015304207	0.0053827349	-0.56359663	0.079271365	0.10218199	0.027626619	0.046028963	-0.047212901	-0.58905068	0.23209138	0.13840807	0.040013156	0.068464346	0.049542795	-0.53777154	0.22649592	0.054557475	-0.04909048	0.012721371	-0.0070969302	-0.62509391	0.28180849	0.079348129	0.073867926	0.45513425	-0.10660297	-0.18972751	0.42580621	0.21157137	0.066545441	0.45833963	0.019349335	-0.17637572	0.39885266	0.083716499	-0.10974643	0.83349196	-0.15634955	-0.18007666	0.8194772	0.2109914	-0.050603792	0.92062525	-0.083795662	-0.072278381	0.90690171	0.15710468	-0.22847689	0.96520168	0.019740021	-0.077842437	1.3628035	-0.14597464	-0.11178209	1.3820848	0.1839392	-0.16202634	1.4206418	0.013331504	-0.23084973	1.032929	-0.1946093	-0.23381945	1.0297286	0.26770365	-0.15571215	0.78927257	-0.25694751	-0.026461855	0.84379845	0.26621221
190	0.756	0.17133327	0.015283948	0.0053735429	-0.55121282	0.08250696	0.10443583	0.027613005	0.045961514	-0.047261529	-0.57673296	0.23578279	0.13856383	0.040029773	0.068480932	0.049470966	-0.52573971	0.23004898	0.054532085	-0.049162346	0.012725575	-0.0071478449	-0.61297368	0.28485567	0.079155865	0.077346728	0.45513559	-0.10712744	-0.17697778	0.42630888	0.21136714	0.069029821	0.45818946	0.019230847	-0.16363785	0.39978654	0.083199954	-0.10368153	0.8348234	-0.15667517	-0.17253295	0.82036613	0.20979465	-0.043976852	0.9217344	-0.083843489	-0.066147014	0.90789356	0.15684261	-0.22164631	0.9665308	0.02007903	-0.070844039	1.3638075	-0.1459948	-0.10549284	1.3831191	0.18386092	-0.15523271	1.421838	0.013090675	-0.22281647	1.0332476	-0.19490124	-0.22775492	1.0311365	0.26737379	-0.14578684	0.789909	-0.25650098	-0.023371055	0.84278088	0.26719048
